<svg id="LOGO" xmlns="http://www.w3.org/2000/svg" xmlns:xlink="http://www.w3.org/1999/xlink" viewBox="0 0 170 170"><defs><style>.cls-1{fill:none;}.cls-2{fill:#f5a11d;}.cls-3{fill:#ed9b21;}.cls-4{clip-path:url(#clip-path);}.cls-5{fill:#d9a88c;}.cls-6{fill:#c0d0d8;}.cls-7{fill:#a7bdc8;}.cls-8{fill:#13a89a;}.cls-9{fill:#eac0a7;}.cls-10{fill:#f2d8bc;}.cls-11{fill:#fff;}.cls-12{fill:#7f97a3;}.cls-13{fill:#8b603d;}</style><clipPath id="clip-path" transform="translate(-352.47 -171.88)"><circle class="cls-1" cx="437.47" cy="256.88" r="85"/></clipPath></defs><title>default-profile</title><g id="men_2" data-name="men 2"><circle class="cls-2" cx="85" cy="85" r="85"/><path class="cls-3" d="M522.47,256.88a85,85,0,0,0-85-85v170A85,85,0,0,0,522.47,256.88Z" transform="translate(-352.47 -171.88)"/><g class="cls-4"><rect class="cls-5" x="72.55" y="106.44" width="24.89" height="27.29"/><path class="cls-6" d="M422,294.58s-23.67,3.46-27.16,7.1c-3,3.17-9.37,33.53-10.83,40.2h53.46v-46Z" transform="translate(-352.47 -171.88)"/><path class="cls-7" d="M452.93,294.58s23.67,3.46,27.16,7.1c3,3.17,9.37,33.53,10.83,40.2H437.47v-46Z" transform="translate(-352.47 -171.88)"/><polygon class="cls-8" points="83.39 128.5 80.24 160.91 85 169.88 89.76 160.91 86.61 128.5 83.39 128.5"/><path class="cls-8" d="M441.72,300.1l-4.25,4.25-4.25-4.25,4.25-4.25Z" transform="translate(-352.47 -171.88)"/><path class="cls-9" d="M437.47,200.21c12.09,0,31.2,6.87,31.2,39.07,0,18.59-6.06,30.77-8.7,34.14-2.43,3.1-16.09,9.7-22.5,9.7Z" transform="translate(-352.47 -171.88)"/><path class="cls-9" d="M474.68,247c.53-5.14-1.92-9.71-5.47-10.2s-6.87,3.29-7.4,8.43,1.92,9.71,5.48,10.2S474.15,252.1,474.68,247Z" transform="translate(-352.47 -171.88)"/><path class="cls-10" d="M437.47,200.21c-12.09,0-31.2,6.87-31.2,39.07,0,18.59,6.06,30.77,8.7,34.14,2.43,3.1,16.09,9.7,22.5,9.7Z" transform="translate(-352.47 -171.88)"/><path class="cls-10" d="M400.26,247c-.53-5.14,1.92-9.71,5.47-10.2s6.87,3.29,7.4,8.43-1.92,9.71-5.47,10.2S400.79,252.1,400.26,247Z" transform="translate(-352.47 -171.88)"/><polygon class="cls-11" points="85 123.99 72.36 118.91 69.25 122.07 75.54 136.01 85 123.99"/><polygon class="cls-11" points="85 123.99 97.64 118.91 100.75 122.07 94.46 136.01 85 123.99"/><rect class="cls-12" x="57.62" y="156.14" width="15.77" height="3.48"/><rect class="cls-12" x="96.62" y="156.14" width="15.77" height="3.48"/><path class="cls-13" d="M410.42,247.52h2.15s-1.31-8.38,2.53-11.09V231s-1.48-.17-1.48-6.55,7.6-10.92,23.84-10.92V194s-32.11,3.46-32.11,26.77v16a5.4,5.4,0,0,1,4,1C411.18,239.28,410.42,247.52,410.42,247.52Z" transform="translate(-352.47 -171.88)"/><path class="cls-13" d="M464.21,247.52h-2.15s1.31-8.38-2.53-11.09V231s1.49-.17,1.49-6.55-7.6-10.92-23.84-10.92V194s32.11,3.46,32.11,26.77v16a5.4,5.4,0,0,0-4,1C463.45,239.28,464.21,247.52,464.21,247.52Z" transform="translate(-352.47 -171.88)"/><path class="cls-11" d="M437.47,269.25c5.63,0,10.2-1.86,10.2-4.16h-20.4C427.27,267.39,431.84,269.25,437.47,269.25Z" transform="translate(-352.47 -171.88)"/></g></g></svg>